{"title":"Thank You for Smoking.2005.DVDRip.XViD.AC3(5.1)SWESUB.avi","uid":5512074,"size":1467440044,"categoryP":"video","categoryS":"movies","magnet":"?xt=urn:btih:17409e31d41b93d964c6264c0b7584211bdce224&amp;dn=Thank+You+for+Smoking.2005.DVDRip.XViD.AC3%285.1%29SWESUB.avi&amp;tr=udp%3A%2F%2Ftracker.openbittorrent.com%3A80&amp;tr=udp%3A%2F%2Fopen.demonii.com%3A1337&amp;tr=udp%3A%2F%2Ftracker.coppersurfer.tk%3A6969&amp;tr=udp%3A%2F%2Fexodus.desync.com%3A6969","seeders":5,"leechers":0,"uploader":"Zen_Bud","files":-1,"time":1272098428,"description":"General\nComplete name                    : Thank You for Smoking.avi\nFormat                           : AVI\nFile size                        : 1.37 GiB\nDuration                         : 1h 32mn\nOverall bit rate                 : 2 125 Kbps\n\nVideo\nID                               : 0\nFormat                           : MPEG-4 Visual\nCodec ID/Hint                    : XviD\nDuration                         : 1h 32mn\nBit rate                         : 1 666 Kbps\nWidth                            : 720 pixels\nHeight                           : 436 pixels\nDisplay aspect ratio             : 2.35:1\nResolution                       : 8 bits\nColorimetry                      : 4:2:0\nScan type                        : Progressive\nBits/(Pixel*Frame)               : 0.212\nStream size                      : 1.07 GiB (78%)\nWriting library                  : XviD 1.1.2 (UTC 2006-11-01)\n\nAudio\nID                               : 1\nFormat                           : AC-3\nFormat/Info                      : Audio Coding 3\nCodec ID                         : 2000\nDuration                         : 1h 32mn\nBit rate mode                    : Constant\nBit rate                         : 448 Kbps\nChannel(s)                       : 6 channels\nChannel positions                : Front: L C R, Side: L R, LFE\nSampling rate                    : 48.0 KHz\nStream size                      : 295 MiB (21%)\n\n\n","torrent":{"xt":"urn:btih:17409e31d41b93d964c6264c0b7584211bdce224","amp;dn":"Thank+You+for+Smoking.2005.DVDRip.XViD.AC3%285.1%29SWESUB.avi","amp;tr":["udp%3A%2F%2Ftracker.openbittorrent.com%3A80","udp%3A%2F%2Fopen.demonii.com%3A1337","udp%3A%2F%2Ftracker.coppersurfer.tk%3A6969","udp%3A%2F%2Fexodus.desync.com%3A6969"],"infoHash":"17409e31d41b93d964c6264c0b7584211bdce224","infoHashBuffer":{"type":"Buffer","data":[23,64,158,49,212,27,147,217,100,198,38,76,11,117,132,33,27,220,226,36]},"announce":[],"urlList":[]}}